<svg xmlns="http://www.w3.org/2000/svg" viewBox="0 0 381 585" width="381" height="585">
  <defs>
    <linearGradient id="bg" x1="0%" y1="0%" x2="100%" y2="100%"><stop offset="0%" style="stop-color:#141e30"/><stop offset="100%" style="stop-color:#243b55"/></linearGradient>
    <linearGradient id="acc" x1="0%" y1="0%" x2="100%" y2="100%"><stop offset="0%" style="stop-color:#7BBF3F"/><stop offset="100%" style="stop-color:#2E8B74"/></linearGradient>
  </defs>
  <rect width="381" height="585" fill="url(#bg)"/>
  <!-- Container jar -->
  <rect x="115" y="120" width="150" height="220" rx="10" fill="rgba(255,255,255,0.05)" stroke="url(#acc)" stroke-width="2.5"/>
  <rect x="110" y="104" width="160" height="22" rx="6" fill="url(#acc)" opacity="0.7"/>
  <!-- Powder inside -->
  <path d="M118 280 Q190 260 262 280 L262 336 Q190 340 118 336 Z" fill="rgba(40,40,40,0.9)"/>
  <path d="M118 250 Q190 232 262 250 L262 285 Q190 268 118 285 Z" fill="rgba(55,55,55,0.8)"/>
  <!-- Powder texture particles -->
  <circle cx="145" cy="295" r="4" fill="rgba(80,80,80,0.6)"/>
  <circle cx="165" cy="305" r="3" fill="rgba(70,70,70,0.5)"/>
  <circle cx="190" cy="290" r="5" fill="rgba(85,85,85,0.7)"/>
  <circle cx="215" cy="300" r="4" fill="rgba(75,75,75,0.6)"/>
  <circle cx="235" cy="295" r="3" fill="rgba(80,80,80,0.5)"/>
  <circle cx="155" cy="315" r="4" fill="rgba(70,70,70,0.5)"/>
  <circle cx="205" cy="318" r="3" fill="rgba(80,80,80,0.6)"/>
  <!-- Label on jar -->
  <rect x="130" y="168" width="120" height="60" rx="4" fill="rgba(255,255,255,0.08)" stroke="rgba(255,255,255,0.2)" stroke-width="1"/>
  <text x="190" y="192" text-anchor="middle" font-family="Arial" font-size="14" fill="white" font-weight="bold">Graphite</text>
  <text x="190" y="210" text-anchor="middle" font-family="Arial" font-size="12" fill="rgba(255,255,255,0.7)">Powder</text>
  <text x="190" y="225" text-anchor="middle" font-family="Arial" font-size="11" fill="rgba(123,191,63,0.8)">99.9% purity</text>
  <!-- Hexagonal structure diagram -->
  <g transform="translate(190, 390)" stroke="url(#acc)" stroke-width="1.5" fill="none" opacity="0.6">
    <polygon points="0,-22 19,-11 19,11 0,22 -19,11 -19,-11"/>
    <line x1="0" y1="-22" x2="0" y2="-10"/>
    <line x1="19" y1="-11" x2="9" y2="-5"/>
    <line x1="19" y1="11" x2="9" y2="5"/>
    <line x1="0" y1="22" x2="0" y2="10"/>
    <line x1="-19" y1="11" x2="-9" y2="5"/>
    <line x1="-19" y1="-11" x2="-9" y2="-5"/>
    <polygon points="0,-10 9,-5 9,5 0,10 -9,5 -9,-5" fill="rgba(123,191,63,0.2)"/>
  </g>
  <text x="190" y="440" text-anchor="middle" font-family="Arial" font-size="11" fill="rgba(123,191,63,0.7)">Hexagonal Structure</text>
  <text x="190" y="500" text-anchor="middle" font-family="Arial,sans-serif" font-size="20" font-weight="700" fill="white">Graphite Powder &amp; Plates</text>
  <text x="190" y="528" text-anchor="middle" font-family="Arial,sans-serif" font-size="13" fill="rgba(123,191,63,0.9)">Synthetic · Natural · Expandable</text>
</svg>