<svg xmlns="http://www.w3.org/2000/svg" viewBox="0 0 381 585" width="381" height="585">
  <defs>
    <linearGradient id="bg" x1="0%" y1="0%" x2="100%" y2="100%"><stop offset="0%" style="stop-color:#141e30"/><stop offset="100%" style="stop-color:#243b55"/></linearGradient>
    <linearGradient id="acc" x1="0%" y1="0%" x2="100%" y2="100%"><stop offset="0%" style="stop-color:#7BBF3F"/><stop offset="100%" style="stop-color:#2E8B74"/></linearGradient>
  </defs>
  <rect width="381" height="585" fill="url(#bg)"/>
  <!-- GDL sheet layers -->
  <rect x="80" y="100" width="220" height="60" rx="6" fill="rgba(30,30,30,0.8)" stroke="url(#acc)" stroke-width="2.5"/>
  <g stroke="rgba(123,191,63,0.4)" stroke-width="1">
    <line x1="80" y1="116" x2="300" y2="116"/><line x1="80" y1="130" x2="300" y2="130"/><line x1="80" y1="144" x2="300" y2="144"/>
    <line x1="100" y1="100" x2="100" y2="160"/><line x1="120" y1="100" x2="120" y2="160"/><line x1="140" y1="100" x2="140" y2="160"/>
    <line x1="160" y1="100" x2="160" y2="160"/><line x1="180" y1="100" x2="180" y2="160"/>
    <line x1="200" y1="100" x2="200" y2="160"/><line x1="220" y1="100" x2="220" y2="160"/><line x1="240" y1="100" x2="240" y2="160"/>
    <line x1="260" y1="100" x2="260" y2="160"/><line x1="280" y1="100" x2="280" y2="160"/>
  </g>
  <text x="190" y="176" text-anchor="middle" font-family="Arial" font-size="12" fill="rgba(255,255,255,0.7)">Carbon Paper GDL</text>
  <!-- MPL layer -->
  <rect x="80" y="210" width="220" height="45" rx="6" fill="rgba(20,20,20,0.9)" stroke="rgba(255,255,255,0.3)" stroke-width="2"/>
  <g stroke="rgba(255,255,255,0.15)" stroke-width="1">
    <line x1="80" y1="220" x2="300" y2="220"/><line x1="80" y1="230" x2="300" y2="230"/>
    <line x1="80" y1="240" x2="300" y2="240"/><line x1="80" y1="250" x2="300" y2="250"/>
  </g>
  <text x="190" y="240" text-anchor="middle" font-family="Arial" font-size="12" fill="rgba(255,255,255,0.7)">MPL (Micro Porous Layer)</text>
  <!-- Carbon cloth GDL -->
  <rect x="80" y="290" width="220" height="60" rx="6" fill="rgba(40,40,40,0.8)" stroke="url(#acc)" stroke-width="2.5"/>
  <g stroke="rgba(46,139,116,0.5)" stroke-width="1.5">
    <line x1="80" y1="310" x2="300" y2="310"/><line x1="80" y1="326" x2="300" y2="326"/><line x1="80" y1="342" x2="300" y2="342"/>
  </g>
  <g stroke="rgba(46,139,116,0.3)" stroke-width="1.5">
    <line x1="96" y1="290" x2="96" y2="350"/><line x1="116" y1="290" x2="116" y2="350"/>
    <line x1="136" y1="290" x2="136" y2="350"/><line x1="156" y1="290" x2="156" y2="350"/>
    <line x1="176" y1="290" x2="176" y2="350"/><line x1="196" y1="290" x2="196" y2="350"/>
    <line x1="216" y1="290" x2="216" y2="350"/><line x1="236" y1="290" x2="236" y2="350"/>
    <line x1="256" y1="290" x2="256" y2="350"/><line x1="276" y1="290" x2="276" y2="350"/>
  </g>
  <text x="190" y="366" text-anchor="middle" font-family="Arial" font-size="12" fill="rgba(255,255,255,0.7)">Carbon Cloth GDL</text>
  <!-- Gas flow arrows through -->
  <circle cx="118" cy="135" r="6" fill="rgba(41,171,226,0.5)"/>
  <circle cx="150" cy="125" r="5" fill="rgba(41,171,226,0.4)"/>
  <circle cx="180" cy="138" r="6" fill="rgba(41,171,226,0.5)"/>
  <circle cx="210" cy="126" r="5" fill="rgba(41,171,226,0.4)"/>
  <circle cx="245" cy="135" r="6" fill="rgba(41,171,226,0.5)"/>
  <text x="190" y="415" text-anchor="middle" font-family="Arial" font-size="12" fill="rgba(41,171,226,0.8)">● H₂/O₂ Gas Diffusion</text>
  <text x="190" y="500" text-anchor="middle" font-family="Arial,sans-serif" font-size="20" font-weight="700" fill="white">Gas Diffusion Layers</text>
  <text x="190" y="528" text-anchor="middle" font-family="Arial,sans-serif" font-size="13" fill="rgba(123,191,63,0.9)">Carbon Paper · Carbon Cloth · MPL</text>
</svg>